<svg width="21" height="20" viewBox="0 0 21 20" fill="none" xmlns="http://www.w3.org/2000/svg">
<path fill-rule="evenodd" clip-rule="evenodd" d="M3.42898 2.92893C-0.474252 6.83216 -0.474252 13.1678 3.42898 17.0711C7.33221 20.9743 13.6679 20.9743 17.5711 17.0711C21.4743 13.1678 21.4743 6.83216 17.5711 2.92893C13.6679 -0.974297 7.33221 -0.974297 3.42898 2.92893ZM6.96451 6.46447C6.5756 6.85338 6.5756 7.48977 6.96451 7.87868L9.08583 10L6.96451 12.1213C6.5756 12.5102 6.5756 13.1466 6.96451 13.5355C7.35342 13.9244 7.98982 13.9244 8.37873 13.5355L10.5 11.4142L12.6214 13.5355C13.0103 13.9244 13.6467 13.9244 14.0356 13.5355C14.4245 13.1466 14.4245 12.5102 14.0356 12.1213L11.9143 10L14.0356 7.87868C14.4245 7.48977 14.4245 6.85338 14.0356 6.46447C13.6467 6.07556 13.0103 6.07556 12.6214 6.46447L10.5 8.58579L8.37873 6.46447C7.98982 6.07556 7.35342 6.07556 6.96451 6.46447ZM4.84319 15.6569C7.96153 18.7752 13.0386 18.7752 16.1569 15.6569C19.2752 12.5385 19.2752 7.46149 16.1569 4.34315C13.0386 1.22481 7.96153 1.22481 4.84319 4.34315C1.72485 7.46149 1.72485 12.5385 4.84319 15.6569Z" fill="#2D3436"/>
</svg>
