<svg width="286" height="40" viewBox="0 0 286 40" fill="none" xmlns="http://www.w3.org/2000/svg">
<path d="M87.4574 17.1818H85.3416V16.2997C85.3416 15.4304 85.6996 14.9574 86.6328 14.9574C87.0291 14.9574 87.3104 15.0469 87.4893 15.1044L87.9368 13.5575C87.6683 13.4553 87.1122 13.2955 86.3388 13.2955C84.7855 13.2955 83.424 14.2031 83.424 16.044V17.1818H81.9091V18.7159H83.424V27H85.3416V18.7159H87.4574V17.1818ZM93.1783 27.1982C95.946 27.1982 97.755 25.1719 97.755 22.1357C97.755 19.0803 95.946 17.054 93.1783 17.054C90.4105 17.054 88.6016 19.0803 88.6016 22.1357C88.6016 25.1719 90.4105 27.1982 93.1783 27.1982ZM93.1847 25.5938C91.3757 25.5938 90.532 24.0149 90.532 22.1293C90.532 20.25 91.3757 18.652 93.1847 18.652C94.9808 18.652 95.8246 20.25 95.8246 22.1293C95.8246 24.0149 94.9808 25.5938 93.1847 25.5938ZM99.8883 27H101.8V21.0043C101.8 19.7195 102.79 18.7926 104.145 18.7926C104.542 18.7926 104.989 18.8629 105.143 18.9077V17.0795C104.951 17.054 104.574 17.0348 104.331 17.0348C103.18 17.0348 102.196 17.6868 101.838 18.7415H101.736V17.1818H99.8883V27ZM110.676 27.1982C112.818 27.1982 114.333 26.1435 114.767 24.5455L112.958 24.2195C112.613 25.1463 111.782 25.6193 110.696 25.6193C109.059 25.6193 107.96 24.5582 107.909 22.6662H114.889V21.9886C114.889 18.4411 112.767 17.054 110.542 17.054C107.806 17.054 106.004 19.1378 106.004 22.1548C106.004 25.2038 107.781 27.1982 110.676 27.1982ZM107.915 21.2344C107.992 19.8409 109.002 18.6328 110.555 18.6328C112.038 18.6328 113.01 19.7322 113.016 21.2344H107.915ZM125.11 17.1818H123.058L120.578 24.7372H120.475L117.989 17.1818H115.937L119.504 27H121.549L125.11 17.1818ZM130.786 27.1982C132.927 27.1982 134.442 26.1435 134.877 24.5455L133.068 24.2195C132.723 25.1463 131.892 25.6193 130.805 25.6193C129.169 25.6193 128.069 24.5582 128.018 22.6662H134.998V21.9886C134.998 18.4411 132.876 17.054 130.652 17.054C127.916 17.054 126.113 19.1378 126.113 22.1548C126.113 25.2038 127.89 27.1982 130.786 27.1982ZM128.025 21.2344C128.101 19.8409 129.111 18.6328 130.664 18.6328C132.147 18.6328 133.119 19.7322 133.125 21.2344H128.025ZM137.119 27H139.03V21.0043C139.03 19.7195 140.021 18.7926 141.376 18.7926C141.772 18.7926 142.22 18.8629 142.373 18.9077V17.0795C142.181 17.054 141.804 17.0348 141.561 17.0348C140.411 17.0348 139.426 17.6868 139.068 18.7415H138.966V17.1818H137.119V27ZM147.811 27.1982C150.579 27.1982 152.388 25.1719 152.388 22.1357C152.388 19.0803 150.579 17.054 147.811 17.054C145.043 17.054 143.234 19.0803 143.234 22.1357C143.234 25.1719 145.043 27.1982 147.811 27.1982ZM147.817 25.5938C146.009 25.5938 145.165 24.0149 145.165 22.1293C145.165 20.25 146.009 18.652 147.817 18.652C149.614 18.652 150.457 20.25 150.457 22.1293C150.457 24.0149 149.614 25.5938 147.817 25.5938ZM156.432 21.1705C156.432 19.6044 157.391 18.7095 158.721 18.7095C160.018 18.7095 160.805 19.5597 160.805 20.9851V27H162.716V20.755C162.716 18.326 161.38 17.054 159.373 17.054C157.896 17.054 156.931 17.7379 156.477 18.7798H156.356V17.1818H154.521V27H156.432V21.1705ZM169.862 17.1818H167.849V14.8295H165.937V17.1818H164.499V18.7159H165.937V24.5135C165.931 26.2969 167.292 27.1598 168.801 27.1278C169.408 27.1214 169.817 27.0064 170.041 26.9233L169.696 25.3445C169.568 25.37 169.331 25.4276 169.025 25.4276C168.405 25.4276 167.849 25.223 167.849 24.1172V18.7159H169.862V17.1818ZM174.098 21.1705C174.098 19.6044 175.089 18.7095 176.451 18.7095C177.767 18.7095 178.554 19.5469 178.554 20.9851V27H180.465V20.755C180.465 18.3068 179.123 17.054 177.103 17.054C175.575 17.054 174.654 17.7188 174.194 18.7798H174.073V13.9091H172.187V27H174.098V21.1705ZM187.247 27.1982C189.388 27.1982 190.903 26.1435 191.338 24.5455L189.529 24.2195C189.184 25.1463 188.353 25.6193 187.266 25.6193C185.63 25.6193 184.53 24.5582 184.479 22.6662H191.459V21.9886C191.459 18.4411 189.337 17.054 187.113 17.054C184.377 17.054 182.574 19.1378 182.574 22.1548C182.574 25.2038 184.351 27.1982 187.247 27.1982ZM184.485 21.2344C184.562 19.8409 185.572 18.6328 187.125 18.6328C188.608 18.6328 189.58 19.7322 189.586 21.2344H184.485ZM193.733 27H195.6V25.4723H195.759C196.105 26.0987 196.808 27.1918 198.597 27.1918C200.975 27.1918 202.701 25.2869 202.701 22.1101C202.701 18.9268 200.95 17.054 198.578 17.054C196.757 17.054 196.098 18.1662 195.759 18.7734H195.644V13.9091H193.733V27ZM195.606 22.0909C195.606 20.0391 196.501 18.6776 198.169 18.6776C199.901 18.6776 200.771 20.1413 200.771 22.0909C200.771 24.0597 199.876 25.5618 198.169 25.5618C196.526 25.5618 195.606 24.1555 195.606 22.0909ZM206.759 13.9091H204.847V27H206.759V13.9091ZM213.465 27.1982C216.233 27.1982 218.042 25.1719 218.042 22.1357C218.042 19.0803 216.233 17.054 213.465 17.054C210.698 17.054 208.889 19.0803 208.889 22.1357C208.889 25.1719 210.698 27.1982 213.465 27.1982ZM213.472 25.5938C211.663 25.5938 210.819 24.0149 210.819 22.1293C210.819 20.25 211.663 18.652 213.472 18.652C215.268 18.652 216.112 20.25 216.112 22.1293C216.112 24.0149 215.268 25.5938 213.472 25.5938ZM224.311 27.1982C226.631 27.1982 228.134 25.8047 228.344 23.8935H226.484C226.241 24.9545 225.417 25.581 224.324 25.581C222.707 25.581 221.665 24.2322 221.665 22.0909C221.665 19.9879 222.726 18.6648 224.324 18.6648C225.538 18.6648 226.28 19.4318 226.484 20.3523H228.344C228.14 18.3707 226.523 17.054 224.292 17.054C221.524 17.054 219.734 19.1378 219.734 22.1357C219.734 25.0952 221.46 27.1982 224.311 27.1982ZM230.388 27H232.3V23.5163L233.252 22.5639L236.589 27H238.934L234.69 21.3942L238.666 17.1818H236.378L232.466 21.3366H232.3V13.9091H230.388V27ZM244.139 27.1982C246.46 27.1982 247.962 25.8047 248.173 23.8935H246.312C246.07 24.9545 245.245 25.581 244.152 25.581C242.535 25.581 241.493 24.2322 241.493 22.0909C241.493 19.9879 242.554 18.6648 244.152 18.6648C245.366 18.6648 246.108 19.4318 246.312 20.3523H248.173C247.968 18.3707 246.351 17.054 244.12 17.054C241.352 17.054 239.562 19.1378 239.562 22.1357C239.562 25.0952 241.288 27.1982 244.139 27.1982ZM252.128 21.1705C252.128 19.6044 253.118 18.7095 254.48 18.7095C255.797 18.7095 256.583 19.5469 256.583 20.9851V27H258.494V20.755C258.494 18.3068 257.152 17.054 255.132 17.054C253.604 17.054 252.684 17.7188 252.224 18.7798H252.102V13.9091H250.216V27H252.128V21.1705ZM263.902 27.2173C265.525 27.2173 266.439 26.3928 266.804 25.6577H266.881V27H268.747V20.4801C268.747 17.6229 266.497 17.054 264.937 17.054C263.16 17.054 261.524 17.7699 260.885 19.5597L262.681 19.9688C262.962 19.272 263.678 18.6009 264.963 18.6009C266.197 18.6009 266.829 19.2464 266.829 20.3587V20.4034C266.829 21.1001 266.113 21.0874 264.349 21.2919C262.489 21.5092 260.584 21.995 260.584 24.2259C260.584 26.1562 262.035 27.2173 263.902 27.2173ZM264.317 25.6832C263.237 25.6832 262.457 25.1974 262.457 24.2514C262.457 23.2287 263.365 22.8643 264.471 22.7173C265.091 22.6342 266.561 22.468 266.836 22.1932V23.4588C266.836 24.6222 265.909 25.6832 264.317 25.6832ZM271.293 27H273.204V17.1818H271.293V27ZM272.258 15.6669C272.916 15.6669 273.466 15.1555 273.466 14.5291C273.466 13.9027 272.916 13.3849 272.258 13.3849C271.593 13.3849 271.05 13.9027 271.05 14.5291C271.05 15.1555 271.593 15.6669 272.258 15.6669ZM277.686 21.1705C277.686 19.6044 278.645 18.7095 279.975 18.7095C281.272 18.7095 282.058 19.5597 282.058 20.9851V27H283.97V20.755C283.97 18.326 282.634 17.054 280.627 17.054C279.15 17.054 278.185 17.7379 277.731 18.7798H277.61V17.1818H275.775V27H277.686V21.1705Z" fill="#2D3436"/>
<path fill-rule="evenodd" clip-rule="evenodd" d="M22.0802 11.5092C23.8805 13.6757 24.9633 16.4614 24.9633 19.5C24.9633 22.5386 23.8805 25.3243 22.0802 27.4908C20.8956 27.4343 19.7782 27.1191 18.7834 26.6001C20.7361 24.8601 21.9663 22.3241 21.9663 19.5C21.9663 16.6759 20.7361 14.1399 18.7834 12.3999C19.7782 11.8809 20.8956 11.5657 22.0802 11.5092ZM20.768 10.1518C19.7941 9.28545 18.684 8.56935 17.4738 8.03988C16.2636 8.56935 15.1535 9.28545 14.1797 10.1518C15.3697 10.3673 16.4826 10.8051 17.4738 11.4209C18.465 10.8051 19.5779 10.3673 20.768 10.1518ZM17.4738 27.5791C18.465 28.1949 19.5779 28.6327 20.768 28.8482C19.7941 29.7146 18.684 30.4306 17.4738 30.9601C16.2636 30.4306 15.1535 29.7146 14.1797 28.8482C15.3697 28.6327 16.4826 28.1949 17.4738 27.5791ZM12.1919 10.0043C7.08838 10.1577 2.99694 14.3497 2.99694 19.5C2.99694 24.6503 7.08838 28.8423 12.1919 28.9957C13.1483 30.0327 14.2594 30.9247 15.4886 31.6349C14.5255 31.8734 13.5183 32 12.4816 32C5.5875 32 0 26.4028 0 19.5C0 12.5972 5.5875 7 12.4816 7C13.5183 7 14.5255 7.12657 15.4886 7.36511C14.2594 8.07526 13.1483 8.96727 12.1919 10.0043Z" fill="#B69443"/>
<path fill-rule="evenodd" clip-rule="evenodd" d="M44.9352 28.5756L37.9921 21.6219L31.049 28.5756L31.0333 28.5905C28.7993 30.7027 25.7824 32 22.466 32C15.5719 32 9.98438 26.4028 9.98438 19.5C9.98438 12.5972 15.5719 7 22.466 7C25.7824 7 28.7993 8.29728 31.0333 10.4096L31.049 10.4244L37.9921 17.3781L44.9352 10.4244L44.9509 10.4095C47.1849 8.29728 50.2017 7 53.518 7C60.4122 7 65.9997 12.5972 65.9997 19.5C65.9997 26.4028 60.4122 32 53.518 32C50.2017 32 47.1849 30.7027 44.9509 28.5904L44.9352 28.5756ZM12.9813 19.5C12.9813 14.2526 17.2285 10 22.466 10C24.9795 10 27.2618 10.9773 28.9603 12.5762L35.8735 19.5L28.9603 26.4238C27.2618 28.0227 24.9794 29 22.466 29C17.2285 29 12.9813 24.7474 12.9813 19.5ZM29.3087 26.7825L36.5797 19.4997L36.58 19.5L29.3087 26.7825ZM53.518 29C51.0046 29 48.7224 28.0228 47.024 26.4238L40.1107 19.5L47.0239 12.5762C48.7223 10.9773 51.0046 10 53.518 10C58.7556 10 63.0027 14.2526 63.0027 19.5C63.0027 24.7474 58.7556 29 53.518 29Z" fill="#2D3436"/>
</svg>
