<svg width="66" height="25" viewBox="0 0 66 25" fill="none" xmlns="http://www.w3.org/2000/svg">
<path fill-rule="evenodd" clip-rule="evenodd" d="M22.0802 4.50918C23.8805 6.67573 24.9633 9.46136 24.9633 12.5C24.9633 15.5386 23.8805 18.3243 22.0802 20.4908C20.8956 20.4343 19.7782 20.1191 18.7834 19.6001C20.7361 17.8601 21.9663 15.3241 21.9663 12.5C21.9663 9.67586 20.7361 7.13988 18.7834 5.39992C19.7782 4.88093 20.8956 4.56566 22.0802 4.50918ZM20.768 3.15183C19.7941 2.28545 18.684 1.56935 17.4738 1.03988C16.2636 1.56935 15.1535 2.28545 14.1797 3.15183C15.3697 3.36729 16.4826 3.80514 17.4738 4.42089C18.465 3.80514 19.5779 3.36729 20.768 3.15183ZM17.4738 20.5791C18.465 21.1949 19.5779 21.6327 20.768 21.8482C19.7941 22.7146 18.684 23.4306 17.4738 23.9601C16.2636 23.4306 15.1535 22.7146 14.1797 21.8482C15.3697 21.6327 16.4826 21.1949 17.4738 20.5791ZM12.1919 3.00435C7.08838 3.15771 2.99694 7.34967 2.99694 12.5C2.99694 17.6503 7.08838 21.8423 12.1919 21.9957C13.1483 23.0327 14.2594 23.9247 15.4886 24.6349C14.5255 24.8734 13.5183 25 12.4816 25C5.5875 25 0 19.4028 0 12.5C0 5.59716 5.5875 0 12.4816 0C13.5183 0 14.5255 0.126566 15.4886 0.365107C14.2594 1.07526 13.1483 1.96727 12.1919 3.00435Z" fill="#B69443"/>
<path fill-rule="evenodd" clip-rule="evenodd" d="M44.9352 21.5756L37.9921 14.6219L31.049 21.5756L31.0333 21.5905C28.7993 23.7027 25.7824 25 22.466 25C15.5719 25 9.98438 19.4028 9.98438 12.5C9.98438 5.59716 15.5719 0 22.466 0C25.7824 0 28.7993 1.29728 31.0333 3.40956L31.049 3.42436L37.9921 10.3781L44.9352 3.42436L44.9509 3.40954C47.1849 1.29728 50.2017 0 53.518 0C60.4122 0 65.9997 5.59716 65.9997 12.5C65.9997 19.4028 60.4122 25 53.518 25C50.2017 25 47.1849 23.7027 44.9509 21.5904L44.9352 21.5756ZM12.9813 12.5C12.9813 7.25257 17.2285 3 22.466 3C24.9795 3 27.2618 3.97727 28.9603 5.57619L35.8735 12.5L28.9603 19.4238C27.2618 21.0227 24.9794 22 22.466 22C17.2285 22 12.9813 17.7474 12.9813 12.5ZM29.3087 19.7825L36.5797 12.4997L36.58 12.5L29.3087 19.7825ZM53.518 22C51.0046 22 48.7224 21.0228 47.024 19.4238L40.1107 12.5L47.0239 5.57622C48.7223 3.97727 51.0046 3 53.518 3C58.7556 3 63.0027 7.25257 63.0027 12.5C63.0027 17.7474 58.7556 22 53.518 22Z" fill="#2D3436"/>
</svg>
